<?xml version="1.0" encoding="UTF-8" standalone="no"?>
<svg
   viewBox="0 0 512 512"
   version="1.1"
   id="svg826"
   sodipodi:docname="dataset-closed.svg"
   inkscape:version="1.1.1 (c3084ef, 2021-09-22)"
   xmlns:inkscape="http://www.inkscape.org/namespaces/inkscape"
   xmlns:sodipodi="http://sodipodi.sourceforge.net/DTD/sodipodi-0.dtd"
   xmlns="http://www.w3.org/2000/svg"
   xmlns:svg="http://www.w3.org/2000/svg">
  <defs
     id="defs830" />
  <sodipodi:namedview
     id="namedview828"
     pagecolor="#ffffff"
     bordercolor="#666666"
     borderopacity="1.0"
     inkscape:pageshadow="2"
     inkscape:pageopacity="0.0"
     inkscape:pagecheckerboard="0"
     showgrid="false"
     inkscape:zoom="0.27976186"
     inkscape:cx="225.19153"
     inkscape:cy="44.680858"
     inkscape:window-width="1440"
     inkscape:window-height="785"
     inkscape:window-x="0"
     inkscape:window-y="25"
     inkscape:window-maximized="1"
     inkscape:current-layer="svg826" />
  <!--! Font Awesome Pro 6.1.2 by @fontawesome - https://fontawesome.com License - https://fontawesome.com/license (Commercial License) Copyright 2022 Fonticons, Inc. -->
  <path
     d="M512 144v288c0 26.5-21.5 48-48 48h-416C21.5 480 0 458.5 0 432v-352C0 53.5 21.5 32 48 32h160l64 64h192C490.5 96 512 117.5 512 144z"
     id="path824"
     style="stroke:#000000;stroke-opacity:1;fill:#ffffff;fill-opacity:1;stroke-width:12.34015748;stroke-miterlimit:4;stroke-dasharray:none" />
  <g
     id="g10541"
     transform="matrix(0.88586208,0,0,0.88586208,222.44188,-246.74176)">
    <path
       style="font-style:normal;font-variant:normal;font-weight:bold;font-stretch:normal;font-size:192px;line-height:25px;font-family:Montserrat;-inkscape-font-specification:'Montserrat Bold';text-align:start;letter-spacing:0px;word-spacing:0px;writing-mode:lr-tb;text-anchor:start;display:inline;fill:#333333;fill-opacity:1;stroke:none;stroke-width:2.20258px;stroke-linecap:butt;stroke-linejoin:miter;stroke-opacity:1"
       d="m 13.509085,452.83103 -31.232019,31.23186 31.78262,31.78261 h 8.633144 c 15.506176,0 29.321726,3.66546 41.44469,10.99573 12.123134,7.04833 21.566182,17.05426 28.332407,30.0232 7.048343,12.96877 10.574223,27.91008 10.574223,44.82592 0,16.6339 -3.24231,31.43564 -9.726615,44.40441 -6.484468,12.96893 -15.508618,22.97912 -27.067721,30.02746 -4.13858,2.52348 -8.501419,4.57482 -13.073617,6.19484 3.190553,3.39318 28.6078,25.17479 28.6078,25.17479 l -20.330831,38.08918 c 15.693261,-3.06457 30.262549,-8.02945 43.703274,-14.90611 24.52787,-12.40507 43.41839,-29.88165 56.66909,-52.43616 13.5328,-22.55449 20.30084,-48.35278 20.30084,-77.39159 0,-29.0388 -6.62846,-54.6931 -19.87918,-76.96567 C 148.9965,501.327 130.38956,483.84599 106.42538,471.44109 82.743313,459.03619 55.395943,452.83103 24.383453,452.83103 Z"
       id="path1711-6-2-1"
       inkscape:connector-curvature="0"
       sodipodi:nodetypes="cccsccssscccccsccsc"
       inkscape:export-xdpi="299.96201"
       inkscape:export-ydpi="299.96201" />
    <path
       style="font-style:normal;font-variant:normal;font-weight:bold;font-stretch:normal;font-size:192px;line-height:25px;font-family:Montserrat;-inkscape-font-specification:'Montserrat Bold';text-align:start;letter-spacing:0px;word-spacing:0px;writing-mode:lr-tb;text-anchor:start;fill:#ffa200;fill-opacity:1;stroke:none;stroke-width:2.20258px;stroke-linecap:butt;stroke-linejoin:miter;stroke-opacity:1"
       d="m -97.331853,452.83103 v 296.45395 c 0,0 110.148936,0.0327 119.193254,0 9.044304,-0.0327 12.876856,-1.65196 12.876856,-1.65196 L 55.477309,715.20496 22.288308,686.69627 H -19.940417 V 515.8455 l -14.738349,-14.7426 -17.039844,-17.04001 -0.0098,-0.004 c 0.0028,0.002 15.687513,-15.68407 31.232019,-31.22776 z"
       id="path1711-6-2-1-9"
       inkscape:connector-curvature="0"
       sodipodi:nodetypes="cczcccccccccc"
       inkscape:export-xdpi="299.96201"
       inkscape:export-ydpi="299.96201" />
  </g>
</svg>
