<?xml version="1.0" encoding="UTF-8" standalone="no"?>
<svg
   viewBox="0 0 610.16858 460.68271"
   version="1.1"
   id="svg826"
   sodipodi:docname="dataset-open.svg"
   inkscape:version="1.1.1 (c3084ef, 2021-09-22)"
   width="610.16858"
   height="460.68271"
   xmlns:inkscape="http://www.inkscape.org/namespaces/inkscape"
   xmlns:sodipodi="http://sodipodi.sourceforge.net/DTD/sodipodi-0.dtd"
   xmlns="http://www.w3.org/2000/svg"
   xmlns:svg="http://www.w3.org/2000/svg">
  <defs
     id="defs830" />
  <sodipodi:namedview
     id="namedview828"
     pagecolor="#ffffff"
     bordercolor="#666666"
     borderopacity="1.0"
     inkscape:pageshadow="2"
     inkscape:pageopacity="0.0"
     inkscape:pagecheckerboard="0"
     showgrid="false"
     inkscape:zoom="0.75745392"
     inkscape:cx="303.64883"
     inkscape:cy="213.8744"
     inkscape:window-width="1296"
     inkscape:window-height="788"
     inkscape:window-x="0"
     inkscape:window-y="25"
     inkscape:window-maximized="0"
     inkscape:current-layer="svg826" />
  <!--! Font Awesome Pro 6.1.2 by @fontawesome - https://fontawesome.com License - https://fontawesome.com/license (Commercial License) Copyright 2022 Fonticons, Inc. -->
  <g
     id="g2563"
     transform="translate(6.1701002,-25.8299)">
    <path
       d="M 512,144 C 512,117.5 490.5,96 464,96 H 272 L 208,32 H 48 C 21.5,32 0,53.5 0,80 v 352 c 0,26.5 21.5,48 48,48 h 408"
       id="path824"
       style="fill:#ffffff;fill-opacity:1;stroke:#000000;stroke-width:12.3402;stroke-miterlimit:4;stroke-dasharray:none;stroke-opacity:1"
       sodipodi:nodetypes="csccssssc" />
    <path
       d="M 557.61934,158.57551 H 157.73858 c -12.06886,0 -23.1403,8.53829 -28.56629,22.22463 L 58.195377,359.47626 27.56206,434.48822 c -11.171081,50.42988 9.471261,45.52847 46.592156,45.52847 H 456.26849 c 12.9666,0 24.03795,-8.53826 29.42406,-22.22463 L 588.49586,204.48067 c 17.08329,-41.37597 12.88611,-45.90516 -30.87652,-45.90516 z"
       id="path1399-0"
       style="fill:#ffffff;fill-opacity:1;stroke:#000000;stroke-width:12.34;stroke-miterlimit:4;stroke-dasharray:none;stroke-opacity:1"
       sodipodi:nodetypes="sscccssccs" />
    <g
       id="g10541"
       transform="matrix(0.88586208,0,-0.37935806,0.79833919,510.6665,-158.96651)">
      <path
         style="font-style:normal;font-variant:normal;font-weight:bold;font-stretch:normal;font-size:192px;line-height:25px;font-family:Montserrat;-inkscape-font-specification:'Montserrat Bold';text-align:start;letter-spacing:0px;word-spacing:0px;writing-mode:lr-tb;text-anchor:start;display:inline;fill:#333333;fill-opacity:1;stroke:none;stroke-width:2.20258px;stroke-linecap:butt;stroke-linejoin:miter;stroke-opacity:1"
         d="M 13.509085,452.83103 -21.165492,486.56809 9.5443104,515.8455 H 22.69283 c 15.506176,0 40.722218,-1.34494 52.845182,5.98533 12.123134,7.04833 22.638999,19.55946 29.405228,32.5284 7.04834,12.96877 7.24371,25.40488 7.24371,42.32072 0,16.6339 -12.38511,36.44604 -18.869415,49.41481 -6.484468,12.96893 -15.508618,22.97912 -27.067721,30.02746 -4.13858,2.52348 -11.943977,7.08002 -16.516175,8.70004 3.190553,3.39318 29.680617,27.67999 29.680617,27.67999 l -17.96109,33.07878 c 15.693261,-3.06457 32.408184,-3.01905 45.848904,-9.89571 24.52787,-12.40507 43.41839,-29.88165 56.66909,-52.43616 13.5328,-22.55449 18.15521,-53.36318 18.15521,-82.40199 0,-29.0388 -6.62846,-54.6931 -19.87918,-76.96567 C 148.9965,501.327 130.38956,483.84599 106.42538,471.44109 82.743313,459.03619 55.395943,452.83103 24.383453,452.83103 Z"
         id="path1711-6-2-1"
         inkscape:connector-curvature="0"
         sodipodi:nodetypes="cccsccssscccccsccsc"
         inkscape:export-xdpi="299.96201"
         inkscape:export-ydpi="299.96201" />
      <path
         style="font-style:normal;font-variant:normal;font-weight:bold;font-stretch:normal;font-size:192px;line-height:25px;font-family:Montserrat;-inkscape-font-specification:'Montserrat Bold';text-align:start;letter-spacing:0px;word-spacing:0px;writing-mode:lr-tb;text-anchor:start;fill:#ffa200;fill-opacity:1;stroke:none;stroke-width:2.20258px;stroke-linecap:butt;stroke-linejoin:miter;stroke-opacity:1"
         d="m -97.331853,452.83103 v 296.45395 c 0,0 110.148936,0.0327 119.193254,0 9.044304,-0.0327 12.876856,-1.65196 12.876856,-1.65196 L 55.477309,715.20496 22.288308,686.69627 H -19.940417 V 515.8455 l -14.738349,-14.7426 -17.039844,-17.04001 -0.0098,-0.004 c 0.0028,0.002 15.687513,-15.68407 31.232019,-31.22776 z"
         id="path1711-6-2-1-9"
         inkscape:connector-curvature="0"
         sodipodi:nodetypes="cczcccccccccc"
         inkscape:export-xdpi="299.96201"
         inkscape:export-ydpi="299.96201" />
    </g>
  </g>
</svg>
