<?xml version="1.0" encoding="UTF-8" standalone="no"?>
<svg
   viewBox="0 0 610.16858 460.68271"
   version="1.1"
   id="svg826"
   sodipodi:docname="directory-open.svg"
   inkscape:version="1.1.1 (c3084ef, 2021-09-22)"
   width="610.16858"
   height="460.68271"
   xmlns:inkscape="http://www.inkscape.org/namespaces/inkscape"
   xmlns:sodipodi="http://sodipodi.sourceforge.net/DTD/sodipodi-0.dtd"
   xmlns="http://www.w3.org/2000/svg"
   xmlns:svg="http://www.w3.org/2000/svg">
  <defs
     id="defs830" />
  <sodipodi:namedview
     id="namedview828"
     pagecolor="#ffffff"
     bordercolor="#666666"
     borderopacity="1.0"
     inkscape:pageshadow="2"
     inkscape:pageopacity="0.0"
     inkscape:pagecheckerboard="0"
     showgrid="false"
     inkscape:zoom="0.75745392"
     inkscape:cx="289.1265"
     inkscape:cy="180.86909"
     inkscape:window-width="1440"
     inkscape:window-height="788"
     inkscape:window-x="0"
     inkscape:window-y="25"
     inkscape:window-maximized="1"
     inkscape:current-layer="svg826" />
  <!--! Font Awesome Pro 6.1.2 by @fontawesome - https://fontawesome.com License - https://fontawesome.com/license (Commercial License) Copyright 2022 Fonticons, Inc. -->
  <g
     id="g1000"
     transform="translate(6.1701002,-25.8299)">
    <path
       d="M 512,144 C 512,117.5 490.5,96 464,96 H 272 L 208,32 H 48 C 21.5,32 0,53.5 0,80 v 352 c 0,26.5 21.5,48 48,48 h 408"
       id="path824"
       style="fill:#ffffff;fill-opacity:1;stroke:#000000;stroke-width:12.3402;stroke-miterlimit:4;stroke-dasharray:none;stroke-opacity:1"
       sodipodi:nodetypes="csccssssc" />
    <path
       d="M 557.61934,158.57551 H 157.73858 c -12.06886,0 -23.1403,8.53829 -28.56629,22.22463 L 58.195377,359.47626 27.56206,434.48822 c -11.171081,50.42988 9.471261,45.52847 46.592156,45.52847 H 456.26849 c 12.9666,0 24.03795,-8.53826 29.42406,-22.22463 L 588.49586,204.48067 c 17.08329,-41.37597 12.88611,-45.90516 -30.87652,-45.90516 z"
       id="path1399-0"
       style="fill:#ffffff;fill-opacity:1;stroke:#000000;stroke-width:12.34;stroke-miterlimit:4;stroke-dasharray:none;stroke-opacity:1"
       sodipodi:nodetypes="sscccssccs" />
  </g>
</svg>
