<?xml version="1.0" encoding="UTF-8" standalone="no"?>
<svg
   viewBox="0 0 393.00485 520.95544"
   version="1.1"
   id="svg826"
   sodipodi:docname="file-symlink-broken.svg"
   inkscape:version="1.1.1 (c3084ef, 2021-09-22)"
   width="393.00485"
   height="520.95544"
   xmlns:inkscape="http://www.inkscape.org/namespaces/inkscape"
   xmlns:sodipodi="http://sodipodi.sourceforge.net/DTD/sodipodi-0.dtd"
   xmlns="http://www.w3.org/2000/svg"
   xmlns:svg="http://www.w3.org/2000/svg">
  <defs
     id="defs830" />
  <sodipodi:namedview
     id="namedview828"
     pagecolor="#ffffff"
     bordercolor="#666666"
     borderopacity="1.0"
     inkscape:pageshadow="2"
     inkscape:pageopacity="0.0"
     inkscape:pagecheckerboard="0"
     showgrid="false"
     inkscape:zoom="0.77041384"
     inkscape:cx="205.08458"
     inkscape:cy="244.02469"
     inkscape:window-width="1440"
     inkscape:window-height="788"
     inkscape:window-x="0"
     inkscape:window-y="25"
     inkscape:window-maximized="0"
     inkscape:current-layer="svg826" />
  <!--! Font Awesome Pro 6.1.2 by @fontawesome - https://fontawesome.com License - https://fontawesome.com/license (Commercial License) Copyright 2022 Fonticons, Inc. -->
  <path
     d="m 388.46929,136.91451 v 315.57164 c 0,35.3 -28.7,64 -64,64 h -256 c -35.35,0 -64.0000002,-28.7 -64.0000002,-64 V 68.486149 c 0,-35.35 28.6500002,-63.9999997 64.0000002,-63.9999997 H 256.04784 M 260.46929,132.48615 V 10.787069 L 382.21227,132.48615 Z"
     id="path824"
     style="opacity:0.683908;fill:#ffffff;fill-opacity:1;stroke:#000000;stroke-width:8.93858;stroke-miterlimit:4;stroke-dasharray:none;stroke-opacity:1"
     sodipodi:nodetypes="cssssssccccc" />
  <path
     d="m 138.42141,230.14949 c 24.79942,-19.42038 60.68871,-17.71324 83.13044,4.71538 19.21083,19.21083 23.9262,47.37213 13.36025,70.9054 l 13.92784,10.87157 41.87086,-41.87085 c 13.7532,-13.75319 13.7532,-36.41323 0,-49.77349 -12.13774,-12.16829 -31.34856,-14.14613 -45.32006,-3.75484 l -0.69859,0.48028 c -6.28716,4.49707 -15.01936,2.66331 -19.47277,-3.23965 -4.49708,-6.27844 -3.05627,-15.00626 3.23091,-19.49024 l 0.69857,-0.48901 c 25.10505,-17.93941 59.50987,-15.09359 81.34035,6.73251 24.66844,24.65098 24.66844,64.64442 0,89.26919 l -39.51315,39.51317 61.78024,48.41998 c 4.54074,3.5802 5.3703,10.17301 1.7901,14.71375 -3.5802,4.54074 -10.17301,5.37029 -14.71374,1.79009 L 61.35808,196.35156 c -4.55471,-3.57147 -5.35327,-10.15554 -1.78311,-14.71113 3.57059,-4.55471 10.15466,-5.35326 14.71286,-1.78311 z m 22.87834,17.81368 50.34107,39.55681 c 2.576,-11.43917 -0.74223,-23.79521 -9.47442,-32.52741 -10.95891,-10.95889 -27.33177,-13.1856 -40.86665,-7.0294 z m 10.87158,95.57381 C 159.11669,330.48236 152.82952,312.887 153.79007,295.50995 l 81.07838,63.91962 c -21.48119,6.3745 -45.71302,1.09152 -62.69712,-15.89259 z m -63.91964,-83.87268 22.09244,17.42072 -26.93881,26.93881 c -13.75756,13.36024 -13.75756,36.02028 0,49.77348 12.13775,12.18141 31.34856,13.7532 45.32007,3.75484 l 0.69858,-0.87322 c 6.28718,-4.10412 15.01936,-2.66331 19.47277,3.62386 4.49708,6.28718 3.05627,15.01936 -3.2309,19.51645 l -0.69858,0.48026 c -25.49799,17.94465 -59.50987,15.06303 -81.33598,-6.72378 -24.65491,-24.66844 -24.65491,-64.66186 0,-89.28664 z"
     id="path1219"
     style="opacity:0.683908;fill:#ffa200;fill-opacity:1;stroke-width:0.436609" />
</svg>
