<?xml version="1.0" encoding="UTF-8" standalone="no"?>
<svg
   viewBox="0 0 263.37439 204.9416"
   version="1.1"
   id="svg826"
   sodipodi:docname="symlink.svg"
   inkscape:version="1.1.1 (c3084ef, 2021-09-22)"
   width="263.37439"
   height="204.9416"
   xmlns:inkscape="http://www.inkscape.org/namespaces/inkscape"
   xmlns:sodipodi="http://sodipodi.sourceforge.net/DTD/sodipodi-0.dtd"
   xmlns="http://www.w3.org/2000/svg"
   xmlns:svg="http://www.w3.org/2000/svg">
  <defs
     id="defs830" />
  <sodipodi:namedview
     id="namedview828"
     pagecolor="#ffffff"
     bordercolor="#666666"
     borderopacity="1.0"
     inkscape:pageshadow="2"
     inkscape:pageopacity="0.0"
     inkscape:pagecheckerboard="0"
     showgrid="false"
     inkscape:zoom="0.86818191"
     inkscape:cx="201.57066"
     inkscape:cy="143.40313"
     inkscape:window-width="1896"
     inkscape:window-height="969"
     inkscape:window-x="0"
     inkscape:window-y="25"
     inkscape:window-maximized="0"
     inkscape:current-layer="svg826" />
  <!--! Font Awesome Pro 6.1.2 by @fontawesome - https://fontawesome.com License - https://fontawesome.com/license (Commercial License) Copyright 2022 Fonticons, Inc. -->
  <path
     d="m 67.396241,48.035913 c 24.23168,-24.22733 64.501609,-24.22733 88.733299,0 21.79109,21.79108 25.01617,56.526077 7.1039,81.585827 l -0.47941,0.69731 c -4.48896,6.23225 -13.2054,7.71405 -19.43765,3.22508 -6.27583,-4.48896 -7.75762,-13.2054 -3.26866,-19.43765 l 0.4794,-0.69731 c 9.98032,-13.989877 8.41136,-33.122447 -3.74806,-45.281877 -13.68481,-13.6848 -35.9553,-13.6848 -49.683679,0 l -48.8992,48.942777 c -13.732743,13.33615 -13.732743,35.95529 0,49.68368 12.11584,12.15943 31.292,13.72838 45.2383,3.74807 l 0.69731,-0.87165 c 6.27583,-4.09672 14.99227,-2.65851 19.437649,3.61732 4.48896,6.27584 3.05075,14.99227 -3.22508,19.48124 l -0.697319,0.4794 c -25.45199,17.91227 -59.4025,15.03585 -81.189226,-6.71166 -24.61042,-24.62392 -24.61042,-64.5452 0,-89.125537 z M 195.96365,156.51194 c -24.62393,24.62393 -64.50162,24.62393 -89.12555,0 C 85.047021,134.72085 82.214171,100.3781 100.12645,75.318353 l 0.4794,-0.69732 c 4.09673,-6.23225 12.81316,-7.71404 19.43765,-3.22508 6.27584,4.09673 7.75763,12.81316 3.26866,19.43765 l -0.4794,0.69732 c -9.98032,13.597627 -8.41136,33.122447 3.74807,45.281877 13.6848,13.6848 35.95529,13.6848 49.68368,0 l 48.8992,-48.942787 c 13.72838,-13.72838 13.72838,-36.34753 0,-49.68368 -12.11585,-12.14635 -31.292,-13.73274 -45.2383,-3.74806 l -0.69732,0.4794 c -6.27583,4.48897 -14.99226,2.65851 -19.43765,-3.2338 -4.48896,-6.26711 -3.05075,-14.97919 3.22509,-19.45508 l 0.69731,-0.48812 c 25.05975,-17.9074802 59.4025,-15.0663602 81.19359,6.72037 24.62393,24.6065 24.62393,64.52777 0,89.108117 z"
     id="path1086"
     style="fill:#ffa200;fill-opacity:1;stroke-width:0.435822" />
</svg>
