<?xml version="1.0" encoding="UTF-8" standalone="no"?>
<svg
   viewBox="0 0 279.43246 223.54645"
   version="1.1"
   id="svg826"
   sodipodi:docname="symlink-broken.svg"
   inkscape:version="1.1.1 (c3084ef, 2021-09-22)"
   width="279.43246"
   height="223.54645"
   xmlns:inkscape="http://www.inkscape.org/namespaces/inkscape"
   xmlns:sodipodi="http://sodipodi.sourceforge.net/DTD/sodipodi-0.dtd"
   xmlns="http://www.w3.org/2000/svg"
   xmlns:svg="http://www.w3.org/2000/svg">
  <defs
     id="defs830" />
  <sodipodi:namedview
     id="namedview828"
     pagecolor="#ffffff"
     bordercolor="#666666"
     borderopacity="1.0"
     inkscape:pageshadow="2"
     inkscape:pageopacity="0.0"
     inkscape:pagecheckerboard="0"
     showgrid="false"
     inkscape:zoom="0.77041384"
     inkscape:cx="147.97242"
     inkscape:cy="67.496191"
     inkscape:window-width="1440"
     inkscape:window-height="788"
     inkscape:window-x="0"
     inkscape:window-y="25"
     inkscape:window-maximized="0"
     inkscape:current-layer="svg826" />
  <!--! Font Awesome Pro 6.1.2 by @fontawesome - https://fontawesome.com License - https://fontawesome.com/license (Commercial License) Copyright 2022 Fonticons, Inc. -->
  <path
     d="m 81.078312,52.524038 c 24.799418,-19.42038 60.688708,-17.71324 83.130438,4.71538 19.21083,19.21083 23.9262,47.372132 13.36025,70.905402 l 13.92784,10.87157 41.87086,-41.870852 c 13.7532,-13.75319 13.7532,-36.41323 0,-49.77349 -12.13774,-12.16829 -31.34856,-14.14613 -45.32006,-3.75484 l -0.69859,0.48028 c -6.28716,4.49707 -15.01936,2.66331 -19.47277,-3.23965 -4.49708,-6.27844 -3.05627,-15.00626 3.23091,-19.49024 l 0.69857,-0.48901 c 25.10505,-17.93941 59.50987,-15.09359 81.34035,6.73251 24.66844,24.65098 24.66844,64.64442 0,89.269192 l -39.51315,39.51317 61.78024,48.41998 c 4.54074,3.5802 5.3703,10.17301 1.7901,14.71375 -3.5802,4.54074 -10.17301,5.37029 -14.71374,1.79009 L 4.0149822,18.726108 c -4.55470997,-3.57147 -5.35327,-10.15554 -1.78311,-14.71113 3.57059,-4.55471002 10.1546598,-5.35326 14.7128598,-1.78311 z m 22.878338,17.81368 50.34107,39.556812 c 2.576,-11.439172 -0.74223,-23.795212 -9.47442,-32.527412 -10.95891,-10.95889 -27.33177,-13.1856 -40.86665,-7.0294 z m 10.87158,95.573812 C 101.77359,152.85691 95.486422,135.26155 96.446972,117.8845 l 81.078378,63.91962 c -21.48119,6.3745 -45.71302,1.09152 -62.69712,-15.89259 z m -63.919638,-83.872682 22.09244,17.42072 -26.93881,26.938812 c -13.75756,13.36024 -13.75756,36.02028 0,49.77348 12.13775,12.18141 31.34856,13.7532 45.32007,3.75484 l 0.69858,-0.87322 c 6.28718,-4.10412 15.019358,-2.66331 19.472768,3.62386 4.49708,6.28718 3.05627,15.01936 -3.2309,19.51645 l -0.69858,0.48026 c -25.497988,17.94465 -59.509868,15.06303 -81.335978,-6.72378 -24.6549098,-24.66844 -24.6549098,-64.66186 0,-89.28664 z"
     id="path1219"
     style="opacity:0.683908;fill:#ffa200;fill-opacity:1;stroke-width:0.436609" />
</svg>
